# xmcd
#
# Track frame offsets: 
#        150
#        22089
#        45386
#        68885
#        93351
#        119565
#        140886
#        162104
#        184353
#
# Disc length: 2687 seconds
#
# Revision: 2
# Processed by: cddbd v1.5.2PL0 Copyright (c) Steve Scherf et al.
# Submitted via: ExactAudioCopyFreeDBPlugin 1.0
#
DISCID=810a7d09
DTITLE=群星 - DTS ES 正品 良经典
DYEAR=2010
DGENRE=DTS ES
TTITLE0=给我给我
TTITLE1=高原红
TTITLE2=向往神鹰
TTITLE3=赤道与北极
TTITLE4=香水有毒
TTITLE5=不能不看你
TTITLE6=我从草原来
TTITLE7=有一种爱叫做放手
TTITLE8=一样爱你
EXTD=
EXTT0=
EXTT1=
EXTT2=
EXTT3=
EXTT4=
EXTT5=
EXTT6=
EXTT7=
EXTT8=
PLAYORDER=
